<?xml version="1.0" encoding="iso-8859-1"?>
<!-- Generator: Adobe Illustrator 21.0.0, SVG Export Plug-In . SVG Version: 6.00 Build 0)  -->
<svg xmlns="http://www.w3.org/2000/svg" xmlns:xlink="http://www.w3.org/1999/xlink" version="1.1" id="Capa_1" x="0px" y="0px" viewBox="0 0 512 512" style="enable-background:new 0 0 512 512;" xml:space="preserve" width="512" height="512">
<g>
	<circle style="fill:#FF4856;" cx="256" cy="256" r="256"/>
	<path style="fill:#D1425A;" d="M509.827,289.432L369.6,149.205l-38.323-19.203l-25.421-25.415L143.4,183.879l40.517,40.531   l-33.745,16.39L175,262l-39.366,156.178l92.282,92.282C237.14,511.467,246.507,512,256,512   C386.053,512,493.446,415.019,509.827,289.432z"/>
	<g>
		<path style="fill:#4DB2FF;" d="M376.366,418.178H135.634V317.45c0-33.185,26.998-60.183,60.183-60.183h120.367    c33.185,0,60.183,26.998,60.183,60.183V418.178z"/>
		<path style="fill:#266CB2;" d="M376.366,317.45c0-33.185-26.998-60.183-60.183-60.183H256v160.911h120.366V317.45z"/>
		<path style="fill:#80C9FF;" d="M308.741,302.663l53.087-61.864l-61.383-29.814L256,253.604l-44.445-42.619L150.172,240.8    l53.087,61.864l-20.736,13.247l67.74,102.268h11.475l67.74-102.268L308.741,302.663z"/>
		<polygon style="fill:#4DB2FF;" points="361.828,240.8 300.445,210.985 256,253.604 256,418.178 261.737,418.178 329.477,315.91     308.741,302.663   "/>
		<path style="fill:#FFE2BA;" d="M256,276.272c-13.66,0-26.747-5.064-36.85-14.258c-10.103-9.195-16.373-21.748-17.657-35.347    l-3.448-36.551h115.908l-3.448,36.551c-1.283,13.6-7.554,26.153-17.657,35.348C282.747,271.209,269.66,276.272,256,276.272z"/>
		<path style="fill:#FFC474;" d="M310.506,226.666l3.448-36.551H256v86.157c13.66,0,26.747-5.064,36.85-14.258    C302.953,252.819,309.223,240.266,310.506,226.666z"/>
		<path style="fill:#80C9FF;" d="M256,211.021c-30.733,0-59.756-3.849-81.722-10.838C156.36,194.481,135,183.93,135,166.042    s21.36-28.439,39.278-34.141c21.966-6.989,50.989-10.838,81.722-10.838s59.756,3.849,81.722,10.838    C355.64,137.602,377,148.154,377,166.042s-21.36,28.439-39.278,34.141C315.756,207.172,286.733,211.021,256,211.021z"/>
		<path style="fill:#4DB2FF;" d="M337.722,200.183C355.64,194.481,377,183.93,377,166.042s-21.36-28.439-39.278-34.141    c-21.966-6.989-50.989-10.838-81.722-10.838v89.958C286.733,211.021,315.756,207.172,337.722,200.183z"/>
		<path style="fill:#4DB2FF;" d="M256,172.984c-17.848,0-35.697-3.365-53.421-10.096l-6.129-2.327v-31.897    c0-19.212,15.63-34.843,34.843-34.843h2.295L256,105.315l22.412-11.493h2.295c19.212,0,34.843,15.63,34.843,34.843v31.897    l-6.129,2.327C291.697,169.619,273.848,172.984,256,172.984z"/>
		<path style="fill:#266CB2;" d="M309.421,162.889l6.129-2.327v-31.897c0-19.212-15.63-34.843-34.843-34.843h-2.295L256,105.315    v67.669C273.848,172.984,291.697,169.619,309.421,162.889z"/>
	</g>
</g>















</svg>
